<svg width="52" height="54" viewBox="0 0 52 54" fill="none" xmlns="http://www.w3.org/2000/svg">
<path d="M21.6667 11.25C21.6667 10.0565 22.1232 8.91193 22.9359 8.06802C23.7485 7.22411 24.8507 6.75 26 6.75C27.1493 6.75 28.2515 7.22411 29.0641 8.06802C29.8768 8.91193 30.3334 10.0565 30.3334 11.25C32.8216 12.4718 34.9427 14.3737 36.4695 16.7519C37.9962 19.1301 38.871 21.8949 39 24.75V31.5C39.1631 32.8988 39.6401 34.2384 40.3928 35.4108C41.1454 36.5832 42.1527 37.5557 43.3334 38.25H8.66669C9.84739 37.5557 10.8546 36.5832 11.6073 35.4108C12.3599 34.2384 12.837 32.8988 13 31.5V24.75C13.1291 21.8949 14.0038 19.1301 15.5306 16.7519C17.0573 14.3737 19.1785 12.4718 21.6667 11.25" stroke="black" stroke-width="4" stroke-linecap="round" stroke-linejoin="round"/>
<path d="M19.5 38.25V40.5C19.5 42.2902 20.1848 44.0071 21.4038 45.273C22.6228 46.5388 24.2761 47.25 26 47.25C27.7239 47.25 29.3772 46.5388 30.5962 45.273C31.8152 44.0071 32.5 42.2902 32.5 40.5V38.25" stroke="black" stroke-width="4" stroke-linecap="round" stroke-linejoin="round"/>
</svg>
