<svg width="52" height="54" viewBox="0 0 52 54" fill="none" xmlns="http://www.w3.org/2000/svg">
<path d="M6.5 45L9.31667 36.225C6.8823 32.4861 6.00165 28.0584 6.83847 23.7652C7.67529 19.4719 10.1726 15.6053 13.8662 12.8841C17.5597 10.163 22.1981 8.77253 26.9189 8.9713C31.6397 9.17007 36.1216 10.9445 39.5314 13.9648C42.9413 16.985 45.0469 21.0455 45.4568 25.3912C45.8667 29.737 44.5531 34.0723 41.7601 37.591C38.967 41.1098 34.8848 43.5726 30.2722 44.5215C25.6597 45.4705 20.8308 44.8409 16.6833 42.75L6.5 45" stroke="black" stroke-width="5" stroke-linecap="round" stroke-linejoin="round"/>
<path d="M26 27V27.0228" stroke="black" stroke-width="5" stroke-linecap="round" stroke-linejoin="round"/>
<path d="M17.3333 27V27.0228" stroke="black" stroke-width="5" stroke-linecap="round" stroke-linejoin="round"/>
<path d="M34.6667 27V27.0228" stroke="black" stroke-width="5" stroke-linecap="round" stroke-linejoin="round"/>
</svg>
