<svg width="52" height="54" viewBox="0 0 52 54" fill="none" xmlns="http://www.w3.org/2000/svg">
<path d="M16.7375 19.0688C17.1708 19.0688 17.55 18.9 17.875 18.5625C18.2 18.225 18.3625 17.8313 18.3625 17.3812C18.3625 16.9312 18.2 16.5375 17.875 16.2C17.55 15.8625 17.1708 15.6937 16.7375 15.6937C16.3042 15.6937 15.925 15.8625 15.6 16.2C15.275 16.5375 15.1125 16.9312 15.1125 17.3812C15.1125 17.8313 15.275 18.225 15.6 18.5625C15.925 18.9 16.3042 19.0688 16.7375 19.0688ZM16.7375 28.6875C17.1708 28.6875 17.55 28.5187 17.875 28.1812C18.2 27.8438 18.3625 27.45 18.3625 27C18.3625 26.55 18.2 26.1562 17.875 25.8188C17.55 25.4813 17.1708 25.3125 16.7375 25.3125C16.3042 25.3125 15.925 25.4813 15.6 25.8188C15.275 26.1562 15.1125 26.55 15.1125 27C15.1125 27.45 15.275 27.8438 15.6 28.1812C15.925 28.5187 16.3042 28.6875 16.7375 28.6875ZM16.7375 38.3062C17.1708 38.3062 17.55 38.1375 17.875 37.8C18.2 37.4625 18.3625 37.0687 18.3625 36.6187C18.3625 36.1687 18.2 35.775 17.875 35.4375C17.55 35.1 17.1708 34.9312 16.7375 34.9312C16.3042 34.9312 15.925 35.1 15.6 35.4375C15.275 35.775 15.1125 36.1687 15.1125 36.6187C15.1125 37.0687 15.275 37.4625 15.6 37.8C15.925 38.1375 16.3042 38.3062 16.7375 38.3062ZM9.75 47.25C8.88333 47.25 8.125 46.9125 7.475 46.2375C6.825 45.5625 6.5 44.775 6.5 43.875V10.125C6.5 9.225 6.825 8.4375 7.475 7.7625C8.125 7.0875 8.88333 6.75 9.75 6.75H34.775L45.5 17.8875V43.875C45.5 44.775 45.175 45.5625 44.525 46.2375C43.875 46.9125 43.1167 47.25 42.25 47.25H9.75ZM9.75 43.875H42.25V19.7437H32.9875V10.125H9.75V43.875ZM9.75 10.125V19.7437V10.125V43.875V10.125Z" fill="black"/>
</svg>
